<?xml version="1.0"?>
<svg xmlns="http://www.w3.org/2000/svg" viewBox="-20 0 512 512.00001" width="512px" height="512px" class=""><g><path d="m334.695312 512h-334.695312v-481.199219h334.691406v481.199219zm0 0" fill="#f2f6fc" data-original="#F2F6FC" class="" style="fill:#87858E" data-old_color="#96949E"/><path d="m334.695312 512h-167.347656v-481.199219h167.347656zm0 0" fill="#dce1eb" data-original="#DCE1EB" class="" style="fill:#616066" data-old_color="#DCE1EB"/><path d="m0 459.554688h334.691406v52.445312h-334.691406zm0 0" fill="#9196aa" data-original="#9196AA" class="active-path" style="fill:#616066" data-old_color="#9196AA"/><path d="m167.347656 459.554688h167.347656v52.445312h-167.347656zm0 0" fill="#7e8596" data-original="#7E8596" class=""/><path d="m60.9375 0h30v61.605469h-30zm0 0" fill="#ff468c" data-original="#FF468C" class="" style="fill:#FB877B" data-old_color="#FA7365"/><path d="m121.878906 0h30v61.605469h-30zm0 0" fill="#ff468c" data-original="#FF468C" class="" style="fill:#FB877B" data-old_color="#FA7365"/><path d="m182.816406 0h30v61.605469h-30zm0 0" fill="#d72878" data-original="#D72878" class="" style="fill:#FA7365" data-old_color="#fa7365"/><path d="m243.753906 0h30v61.605469h-30zm0 0" fill="#d72878" data-original="#D72878" class="" style="fill:#FA7365" data-old_color="#fa7365"/><path d="m472.605469 512h-87.410157v-407.675781l43.707032-83.207031 43.703125 83.207031zm0 0" fill="#ffde91" data-original="#FFDE91"/><path d="m472.605469 512h-43.703125v-490.882812l43.703125 83.207031zm0 0" fill="#fad17f" data-original="#FAD17F" class=""/><path d="m385.195312 104.324219h87.410157v407.675781h-87.410157zm0 0" fill="#ff468c" data-original="#FF468C" class="" style="fill:#FB877B" data-old_color="#FA7365"/><path d="m428.902344 104.324219h43.703125v407.675781h-43.703125zm0 0" fill="#d72878" data-original="#D72878" class="" style="fill:#FA7365" data-old_color="#fa7365"/><path d="m428.902344 21.117188-21.855469 41.605468h43.707031zm0 0" fill="#9196aa" data-original="#9196AA" class="active-path" style="fill:#616066" data-old_color="#9196AA"/><path d="m428.902344 21.117188v41.605468h21.851562zm0 0" fill="#707789" data-original="#707789" class="" style="fill:#707789"/></g> </svg>
